<?xml version="1.0" encoding="UTF-8"?>
<svg xmlns="http://www.w3.org/2000/svg" xmlns:xlink="http://www.w3.org/1999/xlink" width="50pt" height="50pt" viewBox="0 0 50 50" version="1.1">
<g id="surface1">
<path style=" stroke:none;fill-rule:nonzero;fill:#808080;fill-opacity:1;" d="M 24.800781 4.960938 C 18.09375 4.960938 12.019531 6.3125 7.535156 8.554688 C 3.132813 10.757813 0.113281 13.914063 0 17.640625 C -0.00390625 17.691406 -0.00390625 17.746094 0 17.796875 C 0 17.816406 0 17.835938 0 17.855469 L 0 31.746094 C 0 35.570313 3.046875 38.804688 7.535156 41.046875 C 12.019531 43.289063 18.09375 44.644531 24.800781 44.644531 C 31.507813 44.644531 37.582031 43.289063 42.070313 41.046875 C 46.558594 38.804688 49.601563 35.570313 49.601563 31.746094 L 49.601563 17.855469 C 49.601563 14.03125 46.558594 10.800781 42.070313 8.554688 C 37.582031 6.3125 31.507813 4.960938 24.800781 4.960938 Z M 24.800781 6.945313 C 31.242188 6.945313 37.074219 8.257813 41.203125 10.324219 C 45.253906 12.351563 47.539063 15 47.617188 17.703125 C 47.617188 17.734375 47.617188 17.765625 47.617188 17.796875 C 47.617188 17.816406 47.617188 17.835938 47.617188 17.855469 C 47.617188 20.609375 45.328125 23.324219 41.203125 25.390625 C 37.074219 27.457031 31.242188 28.769531 24.800781 28.769531 C 18.359375 28.769531 12.527344 27.457031 8.402344 25.390625 C 4.273438 23.324219 1.984375 20.609375 1.984375 17.855469 C 1.992188 17.796875 1.992188 17.734375 1.984375 17.671875 C 2.082031 14.980469 4.363281 12.34375 8.402344 10.324219 C 12.527344 8.257813 18.359375 6.945313 24.800781 6.945313 Z M 24.800781 10.914063 C 20.316406 10.914063 16.265625 11.574219 13.238281 12.710938 C 11.722656 13.277344 10.457031 13.957031 9.519531 14.789063 C 8.578125 15.617188 7.9375 16.679688 7.9375 17.855469 C 7.9375 19.035156 8.578125 20.097656 9.519531 20.925781 C 10.457031 21.753906 11.722656 22.4375 13.238281 23.003906 C 16.265625 24.140625 20.316406 24.800781 24.800781 24.800781 C 29.285156 24.800781 33.339844 24.140625 36.367188 23.003906 C 37.878906 22.4375 39.148438 21.753906 40.085938 20.925781 C 41.023438 20.097656 41.667969 19.035156 41.667969 17.855469 C 41.667969 16.679688 41.023438 15.617188 40.085938 14.789063 C 39.148438 13.957031 37.878906 13.277344 36.367188 12.710938 C 33.339844 11.574219 29.285156 10.914063 24.800781 10.914063 Z M 24.800781 12.898438 C 29.082031 12.898438 32.964844 13.550781 35.683594 14.570313 C 37.042969 15.078125 38.113281 15.683594 38.785156 16.277344 C 39.453125 16.867188 39.683594 17.390625 39.683594 17.855469 C 39.683594 18.320313 39.453125 18.84375 38.785156 19.4375 C 38.113281 20.03125 37.042969 20.636719 35.683594 21.144531 C 32.964844 22.164063 29.082031 22.816406 24.800781 22.816406 C 20.519531 22.816406 16.636719 22.164063 13.917969 21.144531 C 12.558594 20.636719 11.488281 20.03125 10.820313 19.4375 C 10.148438 18.84375 9.921875 18.320313 9.921875 17.855469 C 9.921875 17.390625 10.148438 16.867188 10.820313 16.277344 C 11.488281 15.683594 12.558594 15.078125 13.917969 14.570313 C 16.636719 13.550781 20.519531 12.898438 24.800781 12.898438 Z M 1.984375 22.972656 C 3.308594 24.589844 5.230469 26.007813 7.535156 27.15625 C 11.113281 28.949219 15.714844 30.144531 20.832031 30.566406 L 20.832031 34.382813 L 28.769531 31.746094 L 28.769531 30.566406 C 33.890625 30.144531 38.488281 28.949219 42.070313 27.15625 C 44.371094 26.007813 46.292969 24.589844 47.617188 22.972656 L 47.617188 31.746094 C 47.617188 34.496094 45.328125 37.214844 41.203125 39.28125 C 37.9375 40.910156 33.617188 42.054688 28.769531 42.472656 L 28.769531 39.03125 L 20.832031 41.667969 L 20.832031 42.472656 C 15.984375 42.054688 11.664063 40.910156 8.402344 39.28125 C 4.273438 37.214844 1.984375 34.496094 1.984375 31.746094 Z M 28.769531 34.195313 L 20.832031 36.832031 L 20.832031 39.21875 L 28.769531 36.582031 Z "/>
</g>
</svg>
