<?xml version="1.0" encoding="UTF-8"?>
<svg xmlns="http://www.w3.org/2000/svg" xmlns:xlink="http://www.w3.org/1999/xlink" width="50pt" height="50pt" viewBox="0 0 50 50" version="1.1">
<g id="surface1">
<path style=" stroke:none;fill-rule:nonzero;fill:#808080;fill-opacity:1;" d="M 6.417969 5.953125 C 4.722656 5.953125 3.167969 6.488281 1.984375 7.363281 L 1.984375 35.726563 C 2.074219 35.78125 2.667969 35.886719 3.957031 35.265625 C 3.894531 42.070313 2.785156 43.539063 2.609375 43.71875 C 2.214844 43.875 1.953125 44.277344 1.988281 44.714844 C 2.027344 45.234375 2.457031 45.636719 2.976563 45.636719 L 9.921875 45.636719 C 10.46875 45.636719 10.914063 45.191406 10.914063 44.644531 C 10.914063 44.195313 10.617188 43.820313 10.214844 43.699219 C 10.011719 43.472656 8.929688 41.933594 8.929688 34.722656 C 8.929688 34.621094 8.898438 34.53125 8.875 34.441406 C 9.363281 34.214844 9.875 34.027344 10.914063 34.722656 C 11.585938 35.167969 12.253906 35.425781 12.898438 35.527344 L 12.898438 44.644531 C 12.898438 45.1875 13.34375 45.636719 13.890625 45.636719 L 43.34375 45.636719 C 45.117188 45.636719 46.550781 44.191406 46.550781 42.410156 C 46.550781 41.535156 46.199219 40.742188 45.636719 40.160156 C 46.777344 39.851563 47.617188 38.816406 47.617188 37.574219 C 47.617188 36.089844 46.425781 34.890625 44.949219 34.890625 C 44.703125 34.890625 44.472656 34.929688 44.25 34.988281 C 43.835938 33.6875 42.640625 32.738281 41.207031 32.738281 C 41.023438 32.738281 40.847656 32.753906 40.675781 32.785156 L 40.675781 26.367188 L 42.003906 27.53125 C 42.195313 27.699219 42.429688 27.777344 42.660156 27.777344 C 42.9375 27.777344 43.214844 27.65625 43.402344 27.441406 C 43.769531 27.023438 43.71875 26.398438 43.3125 26.042969 L 37.699219 21.144531 L 37.699219 13.890625 L 31.746094 13.890625 L 31.746094 15.949219 L 27.441406 12.203125 C 27.066406 11.878906 26.507813 11.878906 26.128906 12.203125 L 18.886719 18.511719 C 18.769531 16.964844 18.003906 14.941406 16.894531 14.015625 C 16.953125 13.761719 16.863281 13.175781 16.863281 12.898438 C 16.863281 10.765625 15 9.335938 12.488281 9.207031 C 11.421875 7.289063 9.105469 5.953125 6.417969 5.953125 Z M 26.785156 14.265625 L 38.703125 24.652344 C 38.691406 24.699219 38.691406 24.75 38.691406 24.800781 L 38.691406 33.996094 C 38.4375 34.332031 38.238281 34.707031 38.128906 35.125 C 37.757813 34.972656 37.355469 34.890625 36.933594 34.890625 C 35.164063 34.890625 33.730469 36.332031 33.730469 38.113281 C 33.730469 39.410156 34.496094 40.523438 35.597656 41.03125 C 35.105469 41.519531 34.800781 42.199219 34.800781 42.949219 C 34.800781 43.195313 34.84375 43.425781 34.90625 43.652344 L 30.753906 43.652344 L 30.753906 31.746094 L 22.816406 31.746094 L 22.816406 43.652344 L 14.882813 43.652344 L 14.882813 24.800781 C 14.882813 24.75 14.882813 24.699219 14.871094 24.652344 Z "/>
</g>
</svg>
