<?xml version="1.0" encoding="UTF-8"?>
<svg xmlns="http://www.w3.org/2000/svg" xmlns:xlink="http://www.w3.org/1999/xlink" width="50pt" height="50pt" viewBox="0 0 50 50" version="1.1">
<g id="surface1">
<path style=" stroke:none;fill-rule:nonzero;fill:#808080;fill-opacity:1;" d="M 33.390625 -0.0625 C 31.539063 -0.0625 30.132813 1.902344 30.132813 3.316406 C 30.132813 5.492188 30.878906 6.152344 30.878906 6.480469 C 30.464844 6.988281 29.484375 7.230469 28.492188 7.378906 L 28.460938 10.042969 C 28.601563 10.03125 28.710938 10.011719 28.863281 10.011719 C 30.996094 10.011719 33.289063 11.398438 33.945313 13.703125 C 34.425781 13.019531 34.769531 12.355469 34.910156 12.027344 C 35.667969 12.460938 36.863281 12.570313 37.511719 12.027344 C 38.710938 12.570313 40.472656 11.921875 40.796875 11.59375 C 42.105469 12.027344 44.039063 11.597656 44.363281 10.726563 C 48.28125 10.835938 49.480469 8.203125 49.695313 7.441406 C 42.84375 8.089844 40.242188 -0.0625 33.390625 -0.0625 Z M 16.246094 0 C 9.421875 0 6.824219 8.121094 0 7.472656 C 0.21875 8.230469 1.402344 10.835938 5.300781 10.726563 C 5.519531 11.484375 7.582031 11.921875 8.773438 11.59375 C 9.097656 11.921875 10.839844 12.570313 12.027344 12.027344 C 12.679688 12.570313 13.875 12.460938 14.632813 12.027344 C 14.777344 12.367188 15.148438 13.089844 15.65625 13.796875 C 16.289063 11.441406 18.582031 10.011719 20.742188 10.011719 C 20.863281 10.011719 20.964844 10.035156 21.082031 10.042969 L 20.988281 7.410156 C 20.046875 7.257813 19.121094 6.992188 18.726563 6.511719 C 18.726563 6.183594 19.5 5.546875 19.5 3.378906 C 19.5 1.972656 18.085938 0 16.246094 0 Z M 24.800781 0 C 23.160156 0 21.824219 1.332031 21.824219 2.976563 C 21.824219 4.621094 23.160156 5.953125 24.800781 5.953125 C 26.445313 5.953125 27.777344 4.621094 27.777344 2.976563 C 27.777344 1.332031 26.445313 0 24.800781 0 Z M 22.972656 7.566406 L 23.25 14.851563 C 23.875 15.125 24.421875 15.34375 24.429688 15.347656 C 25.019531 15.574219 25.660156 15.839844 26.320313 16.121094 L 26.507813 7.625 C 25.972656 7.824219 25.40625 7.9375 24.800781 7.9375 C 24.15625 7.9375 23.539063 7.789063 22.972656 7.566406 Z M 20.742188 11.996094 C 19.152344 11.996094 17.453125 13.183594 17.453125 15.066406 C 17.453125 20.421875 27.28125 19.851563 27.28125 23.625 C 27.28125 24.453125 26.800781 25.179688 26.257813 25.761719 C 26.265625 25.765625 26.28125 25.757813 26.289063 25.761719 C 26.53125 25.929688 26.773438 26.09375 26.972656 26.226563 C 27.59375 26.65625 28.253906 27.117188 28.894531 27.621094 C 29.792969 26.628906 30.753906 25.136719 30.753906 23.21875 C 30.753906 17.765625 19.933594 17.167969 19.933594 14.789063 C 20.730469 14.890625 23.003906 14.875 23.003906 13.484375 C 23.003906 12.890625 22.425781 11.996094 20.742188 11.996094 Z M 28.863281 11.996094 C 27.175781 11.996094 26.601563 12.890625 26.601563 13.484375 C 26.601563 14.875 28.875 14.890625 29.667969 14.789063 C 29.667969 15.304688 29.03125 16.210938 28.058594 16.925781 C 28.933594 17.386719 29.777344 17.929688 30.507813 18.570313 C 31.433594 17.886719 32.148438 16.90625 32.148438 15.066406 C 32.148438 13.183594 30.453125 11.996094 28.863281 11.996094 Z M 20.304688 21.207031 C 19.742188 21.878906 19.253906 22.789063 19.253906 23.902344 C 19.253906 29.753906 27.097656 30.25 27.097656 33.328125 C 27.097656 33.605469 26.957031 33.871094 26.785156 34.101563 C 26.785156 34.101563 28.761719 35.34375 29.140625 35.992188 C 29.71875 35.328125 30.257813 34.402344 30.257813 33.140625 C 30.257813 29.070313 22.414063 27.089844 22.414063 24.210938 C 22.414063 23.542969 22.738281 22.933594 23.191406 22.414063 C 22.855469 22.273438 22.550781 22.148438 22.289063 22.042969 C 21.667969 21.792969 20.980469 21.515625 20.304688 21.207031 Z M 24.957031 23.28125 C 24.882813 23.429688 24.816406 23.589844 24.707031 23.714844 C 24.527344 23.929688 24.421875 24.070313 24.398438 24.152344 C 24.453125 24.253906 24.597656 24.382813 24.738281 24.523438 C 24.773438 24.480469 24.796875 24.4375 24.832031 24.398438 C 25.183594 24.019531 25.292969 23.75 25.296875 23.625 C 25.253906 23.527344 25.121094 23.394531 24.957031 23.28125 Z M 20.894531 30.507813 C 20.332031 31.207031 19.839844 32.132813 19.839844 33.140625 C 19.839844 38.371094 26.519531 37.140625 25.699219 41.203125 C 25.738281 41.28125 25.738281 41.363281 25.792969 41.449219 C 26.507813 41.839844 27.382813 42.34375 28.148438 42.96875 C 28.496094 42.238281 28.769531 41.421875 28.769531 40.675781 C 28.769531 38.964844 27.992188 37.445313 27.375 36.984375 C 27.375 36.984375 26.085938 35.894531 25.144531 35.34375 C 24.199219 34.789063 23.128906 34.21875 23.128906 33.421875 C 23.128906 33.085938 23.355469 32.671875 23.65625 32.273438 C 23.453125 32.144531 23.242188 32.035156 23.066406 31.933594 C 22.40625 31.53125 21.640625 31.058594 20.894531 30.507813 Z M 21.113281 38.753906 C 20.953125 39.179688 20.832031 39.683594 20.832031 40.273438 C 20.832031 41.839844 22.132813 43.53125 23.714844 44.394531 C 25.53125 45.507813 25.980469 45.859375 26.074219 46.378906 C 26.121094 46.628906 25.929688 47.015625 25.546875 47.464844 C 25.1875 47.882813 25.21875 48.507813 25.636719 48.859375 C 25.824219 49.019531 26.0625 49.105469 26.289063 49.105469 C 26.570313 49.105469 26.835938 49 27.035156 48.765625 C 27.839844 47.816406 28.183594 46.917969 28.027344 46.039063 C 27.789063 44.703125 25.28125 43.496094 24.460938 42.96875 C 23.640625 42.441406 23.375 41.425781 23.59375 40.242188 C 23.289063 39.992188 22.683594 39.648438 22.289063 39.433594 C 21.933594 39.242188 21.535156 39.019531 21.113281 38.753906 Z M 21.421875 44.394531 C 21.054688 45.132813 20.917969 45.859375 21.050781 46.566406 C 21.347656 48.171875 22.804688 48.933594 22.972656 49.015625 C 23.113281 49.078125 23.261719 49.105469 23.40625 49.105469 C 23.773438 49.105469 24.136719 48.902344 24.304688 48.550781 C 24.542969 48.054688 24.332031 47.457031 23.839844 47.214844 C 23.832031 47.210938 23.121094 46.824219 23.003906 46.191406 C 22.957031 45.941406 23.015625 45.679688 23.128906 45.417969 C 23.097656 45.398438 23.066406 45.375 23.035156 45.355469 C 22.535156 45.085938 21.976563 44.773438 21.421875 44.394531 Z "/>
</g>
</svg>
