<?xml version="1.0" encoding="UTF-8"?>
<svg xmlns="http://www.w3.org/2000/svg" xmlns:xlink="http://www.w3.org/1999/xlink" width="50pt" height="50pt" viewBox="0 0 50 50" version="1.1">
<g id="surface1">
<path style=" stroke:none;fill-rule:nonzero;fill:#808080;fill-opacity:1;" d="M 13.121094 9.835938 C 11.78125 9.835938 10.582031 10.652344 10.082031 11.890625 C 9.574219 13.132813 9.875 14.550781 10.832031 15.484375 L 20.019531 24.671875 L 10.832031 33.859375 C 9.972656 34.679688 9.625 35.90625 9.925781 37.0625 C 10.226563 38.214844 11.128906 39.113281 12.277344 39.414063 C 13.433594 39.71875 14.660156 39.371094 15.484375 38.511719 L 24.671875 29.324219 L 33.859375 38.511719 C 34.679688 39.371094 35.90625 39.71875 37.0625 39.414063 C 38.214844 39.113281 39.113281 38.214844 39.414063 37.0625 C 39.71875 35.90625 39.371094 34.679688 38.511719 33.859375 L 29.324219 24.671875 L 38.511719 15.484375 C 39.480469 14.539063 39.777344 13.09375 39.25 11.839844 C 38.714844 10.59375 37.476563 9.796875 36.121094 9.835938 C 35.265625 9.863281 34.457031 10.222656 33.859375 10.832031 L 24.671875 20.019531 L 15.484375 10.832031 C 14.859375 10.195313 14.011719 9.835938 13.121094 9.835938 Z "/>
</g>
</svg>
